<svg width="28" height="21" viewBox="0 0 28 21" fill="none" xmlns="http://www.w3.org/2000/svg">
<path d="M22.5894 0.0457592C22.1839 0.126854 21.7082 0.391764 21.4054 0.716145C20.9242 1.22434 20.7242 1.82985 20.7621 2.67324C20.7783 3.07872 20.7945 3.13278 20.9297 3.26794C21.0486 3.38688 21.1297 3.41932 21.3243 3.41932C21.5352 3.41932 21.5946 3.39228 21.7298 3.24091C21.8704 3.08412 21.8866 3.03006 21.8866 2.68946C21.8866 2.05692 21.9731 1.7866 22.265 1.50006C22.4596 1.30003 22.5786 1.22975 22.784 1.1865C23.3571 1.06215 23.8599 1.31625 24.1086 1.85148C24.2005 2.0461 24.2113 2.22992 24.2113 3.9167V5.77107H12.8039C1.67226 5.77107 1.39113 5.77107 1.12622 5.87379C0.753185 6.01436 0.504493 6.21439 0.293646 6.54418C-0.15508 7.23079 -0.0847978 8.05255 0.472055 8.65265C0.590995 8.78241 0.785623 8.93378 0.899156 8.98244L1.11 9.07975L1.14244 10.4638C1.17488 11.9559 1.24516 12.4371 1.5371 13.3183C2.01827 14.7726 3.09954 16.2161 4.33218 17.0649L4.58087 17.2325L4.59709 18.7895C4.61331 20.1952 4.62413 20.3574 4.71603 20.4871C4.862 20.7034 5.1161 20.7575 5.89462 20.7358C6.51094 20.7196 6.59203 20.7088 6.70557 20.6007C6.77585 20.5358 7.06239 20.0168 7.34351 19.4545L7.85712 18.4219H13.8311H19.8051L20.3187 19.4545C20.5999 20.0168 20.8864 20.5358 20.9567 20.6007C21.0702 20.7088 21.1513 20.7196 21.7676 20.7358C22.5461 20.7575 22.8002 20.7034 22.9462 20.4871C23.0381 20.3574 23.0489 20.1952 23.0652 18.7895L23.0814 17.2325L23.3301 17.0649C24.5627 16.2161 25.644 14.7726 26.1251 13.3183C26.4171 12.4371 26.4874 11.9559 26.5198 10.4638L26.5522 9.07975L26.7631 8.98244C26.8766 8.93378 27.0713 8.78241 27.1902 8.65265C27.747 8.05255 27.8173 7.23079 27.3686 6.54418C27.028 6.01977 26.6442 5.81973 25.8873 5.77648L25.3737 5.74404L25.3466 3.7437C25.325 2.05151 25.3034 1.71091 25.2277 1.52169C24.7898 0.424202 23.7193 -0.175901 22.5894 0.0457592ZM5.77568 7.47407V8.04174H3.63477H1.49385L1.33707 7.88495C1.14244 7.69032 1.11541 7.45245 1.25057 7.18213C1.38032 6.92262 1.49385 6.91181 3.71045 6.90641H5.77568V7.47407ZM12.6958 9.70689C12.6958 11.2477 12.685 12.5236 12.6688 12.5398C12.6471 12.556 8.17609 11.837 7.08942 11.637L6.91101 11.6045V9.25816V6.90641H9.8034H12.6958V9.70689ZM26.1468 6.96588C26.5198 7.09563 26.6171 7.59301 26.3252 7.88495L26.1684 8.04174H19.9998H13.8311V7.47407V6.90641H19.9079C24.0978 6.90641 26.0332 6.92262 26.1468 6.96588ZM5.77568 10.7611C5.77568 12.4479 5.78108 12.4695 6.12168 12.6101C6.21359 12.6479 7.86793 12.9399 9.8034 13.2589L13.3121 13.8427L13.5013 13.74C13.8311 13.5616 13.8311 13.5724 13.8311 11.2964V9.23113H19.5943H25.3574L25.3358 10.5935C25.3142 11.8478 25.298 12.0046 25.1682 12.4749C24.9898 13.1453 24.7627 13.686 24.4492 14.2104C23.4869 15.8052 21.7947 16.9298 19.9403 17.2109C19.1834 17.3244 8.47885 17.3244 7.72196 17.2109C5.86758 16.9298 4.1754 15.8052 3.21307 14.2104C2.8995 13.686 2.67244 13.1453 2.49403 12.4749C2.36427 12.0046 2.34806 11.8478 2.32643 10.5935L2.30481 9.23113H4.04024H5.77568V10.7611ZM6.32712 18.0543L6.68394 18.1678L6.32712 18.8923C6.06762 19.4059 5.93787 19.6113 5.87299 19.6113C5.78649 19.6113 5.77568 19.5356 5.77568 18.7409C5.77568 17.9353 5.78108 17.8705 5.87299 17.9083C5.92165 17.9245 6.12709 17.9948 6.32712 18.0543ZM21.8866 18.7463C21.8866 19.5356 21.8758 19.6113 21.7893 19.6113C21.7244 19.6113 21.5946 19.4059 21.3351 18.8923L20.9783 18.1732L21.3892 18.0327C21.6217 17.957 21.8217 17.8921 21.8487 17.8867C21.8704 17.8867 21.8866 18.2705 21.8866 18.7463Z" fill="#E3B46D"/>
</svg>
