<svg width="28" height="18" viewBox="0 0 28 18" fill="none" xmlns="http://www.w3.org/2000/svg">
<path d="M0.25416 0.434725C-0.0107511 0.591509 6.15888e-05 0.191441 6.15888e-05 9.18759C6.15888e-05 18.227 -0.0107511 17.7945 0.264972 17.9459C0.41635 18.0216 3.03302 18.0161 3.21143 17.9405C3.46012 17.8269 3.51418 17.6053 3.51418 16.7078V15.8915H13.8403H24.1664V16.7078C24.1664 17.6053 24.2205 17.8269 24.4692 17.9405C24.6476 18.0161 27.2642 18.0216 27.4156 17.9459C27.6913 17.7945 27.6805 17.9891 27.6805 12.0259C27.6805 5.99785 27.6913 6.25735 27.3832 6.11679C27.2859 6.07354 26.8263 6.05191 25.8964 6.05191H24.5449L24.3773 6.20329C24.2367 6.32764 24.1988 6.40873 24.1772 6.6358L24.1502 6.91693L17.6464 6.92774L11.1371 6.94396L10.9912 7.09534C10.8506 7.2305 10.8398 7.28456 10.8236 7.72788L10.8019 8.21445H10.5424H10.2775L10.2613 6.9818C10.2451 5.83566 10.2343 5.73835 10.1207 5.47884C9.96395 5.13824 9.67741 4.85171 9.326 4.68952C9.05568 4.56517 9.04487 4.56517 6.28764 4.54895L3.51418 4.53273V2.69458C3.51418 0.688824 3.49796 0.564478 3.21143 0.434725C3.03843 0.359037 0.394725 0.35363 0.25416 0.434725ZM2.43292 9.18759V16.9187H1.75712H1.08133V9.18759V1.45652H1.75712H2.43292V9.18759ZM8.89349 5.68428C9.16381 5.80322 9.19084 5.94919 9.19084 7.13318V8.21445H6.35251H3.51418V6.91693V5.61941H6.13626C8.0501 5.61941 8.79077 5.63563 8.89349 5.68428ZM26.5993 12.0259V16.9187H25.9235H25.2477V12.0259V7.13318H25.9235H26.5993V12.0259ZM24.1664 10.4851V12.972H18.0302H11.894V10.4851V7.9982H18.0302H24.1664V10.4851ZM10.8236 11.5177L10.8398 13.7397L11.0182 13.8965L11.1912 14.0533H17.6788H24.1664V14.4317V14.8102H13.8403H3.51418V12.053V9.29572H7.16346H10.8073L10.8236 11.5177Z" fill="#E3B46D"/>
</svg>
