<svg width="141" height="31" viewBox="0 0 141 31" fill="none" xmlns="http://www.w3.org/2000/svg">
<path d="M1.99 21.72H3.71C5.49667 21.72 6.39 22.4367 6.39 23.87C6.39 25.29 5.49667 26 3.71 26H0.85V19H5.84V20.05H1.99V21.72ZM1.99 24.96H3.73C3.94333 24.96 4.12667 24.9467 4.28 24.92C4.44 24.8933 4.59667 24.8467 4.75 24.78C4.91 24.7067 5.03 24.5933 5.11 24.44C5.19 24.2867 5.23 24.0967 5.23 23.87C5.23 23.6367 5.18667 23.4433 5.1 23.29C5.02 23.1367 4.90333 23.0233 4.75 22.95C4.59667 22.8767 4.44 22.8267 4.28 22.8C4.12667 22.7733 3.94333 22.76 3.73 22.76H1.99V24.96ZM7.56875 19H12.3888V20.04H8.70875V21.95H12.0888V22.99H8.70875V24.96H12.4488V26H7.56875V19ZM13.7602 19H16.2602C18.2535 19 19.2502 19.7667 19.2502 21.3C19.2502 22.8333 18.2535 23.6 16.2602 23.6H14.9002V26H13.7602V19ZM17.6102 22.29C17.9302 22.1033 18.0902 21.7733 18.0902 21.3C18.0902 20.8267 17.9302 20.5 17.6102 20.32C17.2968 20.1333 16.8668 20.04 16.3202 20.04H14.9002V22.56H16.3202C16.8668 22.56 17.2968 22.47 17.6102 22.29ZM23.4424 24.41C22.9091 25.5567 22.1591 26.13 21.1924 26.13C20.8791 26.13 20.5458 26.0767 20.1924 25.97V24.96C20.4524 25.0467 20.7224 25.09 21.0024 25.09C21.5691 25.09 21.9824 24.83 22.2424 24.31L22.3724 24.05L19.5324 19H20.8024L22.9524 23L24.7424 19H25.9824L23.4424 24.41ZM30.3201 26H29.1801V19H30.3201V21.92H31.7001L33.6501 19H34.9401L32.6201 22.41L35.1201 26H33.8301L31.7201 22.97H30.3201V26ZM35.4152 23.85C35.2618 23.4233 35.1852 22.9733 35.1852 22.5C35.1852 22.0267 35.2618 21.5767 35.4152 21.15C35.5752 20.7233 35.8018 20.34 36.0952 20C36.3885 19.6533 36.7752 19.38 37.2552 19.18C37.7352 18.9733 38.2718 18.87 38.8652 18.87C39.4585 18.87 39.9918 18.9733 40.4652 19.18C40.9452 19.38 41.3318 19.6533 41.6252 20C41.9252 20.34 42.1518 20.7233 42.3052 21.15C42.4652 21.5767 42.5452 22.0267 42.5452 22.5C42.5452 22.9733 42.4652 23.4233 42.3052 23.85C42.1518 24.2767 41.9252 24.6633 41.6252 25.01C41.3318 25.35 40.9452 25.6233 40.4652 25.83C39.9918 26.03 39.4585 26.13 38.8652 26.13C38.2718 26.13 37.7352 26.03 37.2552 25.83C36.7752 25.6233 36.3885 25.35 36.0952 25.01C35.8018 24.6633 35.5752 24.2767 35.4152 23.85ZM40.7252 24.32C41.1652 23.8267 41.3852 23.22 41.3852 22.5C41.3852 21.78 41.1652 21.1733 40.7252 20.68C40.2918 20.1867 39.6718 19.94 38.8652 19.94C38.0652 19.94 37.4452 20.1867 37.0052 20.68C36.5652 21.1733 36.3452 21.78 36.3452 22.5C36.3452 23.22 36.5652 23.8267 37.0052 24.32C37.4452 24.8133 38.0652 25.06 38.8652 25.06C39.6718 25.06 40.2918 24.8133 40.7252 24.32ZM42.806 19H48.576V20.05H46.266V26H45.126V20.05H42.806V19ZM48.8607 19H54.6307V20.05H52.3207V26H51.1807V20.05H48.8607V19ZM55.6254 19H60.4454V20.04H56.7654V21.95H60.1454V22.99H56.7654V24.96H60.5054V26H55.6254V19ZM62.2268 27.59H61.1868V24.96H62.0268C62.7735 23.6 63.1468 21.6133 63.1468 19H67.6568V24.96H68.5468V27.59H67.5068V26H62.2268V27.59ZM64.2668 20.05C64.1268 22.3167 63.7935 23.9533 63.2668 24.96H66.5168V20.05H64.2668ZM70.2074 26H68.9174L71.1074 22.41L69.0974 19H70.3774L72.0274 21.92H73.0974V19H74.2374V21.92H75.2974L76.9474 19H78.2374L76.2174 22.41L78.4074 26H77.1274L75.2874 22.97H74.2374V26H73.0974V22.97H72.0374L70.2074 26Z" fill="white"/>
<path d="M85.5498 4.73683C81.0426 7.34925 77.2244 9.47364 77.0235 9.47364C76.8512 9.47364 76.6503 9.58848 76.5929 9.70331C76.5067 9.96168 73.3776 11.8851 72.3441 12.3157C71.9422 12.488 70.7939 13.1483 69.7891 13.7798C68.813 14.4114 67.8944 14.9282 67.7795 14.9282C67.6934 14.9282 67.2915 15.1865 66.8896 15.5023L66.1719 16.0765H69.6742H73.2053L75.99 14.4114C84.9469 9.10044 93.6741 4.24879 94.1335 4.39233C94.3918 4.44975 97.6071 6.22964 101.224 8.32533C104.842 10.421 108.373 12.4593 109.09 12.8612C109.808 13.2344 111.301 14.0956 112.392 14.7559C113.511 15.3875 114.746 16.1052 115.148 16.3636C115.578 16.5932 118.047 18.0286 120.66 19.5214C123.731 21.2726 125.483 22.4497 125.569 22.8229C125.655 23.1386 125.741 24.3444 125.741 25.464V27.5597H133.693C142.506 27.5597 142.191 27.6745 138.774 25.8085C137.856 25.2917 133.722 22.909 129.617 20.5262C125.511 18.1435 120.832 15.4449 119.224 14.5263L116.296 12.8612L116.21 9.53106L116.124 6.17222L114.344 6.0861L112.535 5.99998V8.03824C112.535 9.81814 112.478 10.0478 111.99 10.0478C111.674 10.0478 108.143 8.15308 104.153 5.85644C96.2578 1.29186 93.9899 0 93.8177 0C93.789 0 90.0569 2.12439 85.5498 4.73683Z" fill="white"/>
<path d="M62.1529 4.65072C60.2582 5.77033 58.1338 7.00477 57.4161 7.40668C56.6984 7.80859 54.4591 9.10045 52.3922 10.2775C50.3539 11.4545 48.4018 12.5741 48.086 12.7464C47.7702 12.9473 46.4209 13.7224 45.0716 14.4976L42.6602 15.933L45.9042 16.0191L49.1195 16.1052L55.2055 12.6028C58.5644 10.6794 61.6361 8.8995 62.0668 8.64113C65.5691 6.51673 66.172 6.28707 66.7462 6.86123C66.9184 7.00477 68.3825 7.89472 70.0189 8.84208L72.9758 10.5933L74.038 10.1052C74.6121 9.84686 75.1289 9.53108 75.215 9.44495C75.3011 9.35883 75.5882 9.15787 75.8753 8.98562C76.3633 8.72725 76.3633 8.66984 75.6743 8.23921C75.3011 7.98084 74.4973 7.49281 73.9519 7.17702C73.3777 6.86123 72.4878 6.34449 71.9997 6.05741C66.9471 3.12919 65.971 2.58374 65.7988 2.58374C65.684 2.61245 64.0476 3.5311 62.1529 4.65072Z" fill="white"/>
<path d="M63.3186 8.78066C62.1031 9.4938 60.74 10.28 60.2795 10.536C59.8191 10.7921 58.3825 11.6149 57.0565 12.3646C55.7486 13.1143 54.4963 13.8274 54.2936 13.9371C54.091 14.0651 53.2254 14.5588 52.3596 15.0525L50.8125 15.9668L52.8938 16.0216L54.9568 16.0765L58.8614 13.8457C61.0165 12.6206 62.987 11.4869 63.2634 11.3223C65.5104 9.9692 65.8971 9.82293 66.2657 10.1886C66.3763 10.28 67.3156 10.8469 68.3654 11.4503L70.2625 12.5657L70.944 12.2549C71.3123 12.0903 71.6439 11.8892 71.699 11.8343C71.7544 11.7794 71.9384 11.6515 72.1227 11.5417C72.4359 11.3772 72.4359 11.3406 71.9938 11.0663C71.7544 10.9017 71.2385 10.5909 70.8886 10.3898C70.5203 10.1886 69.9493 9.85948 69.6363 9.67664C66.3946 7.81154 65.7682 7.46411 65.6577 7.46411C65.5842 7.4824 64.5343 8.06752 63.3186 8.78066Z" fill="white"/>
<path d="M91.951 14.0382C90.573 14.6698 89.2812 16.0191 88.7931 17.3109C88.5922 17.8564 88.4486 20.0095 88.4486 22.5932L88.4199 26.9855H89.9989H91.5778V24.2583C91.5778 21.732 91.6352 21.4449 92.2955 20.7272L93.0132 19.9521L92.152 19.0908C91.5204 18.4593 91.2046 18.3444 90.9749 18.5741C90.5443 19.0047 90.8888 19.5215 91.6065 19.5215C92.3816 19.5215 92.2381 20.7559 91.4917 20.8994C90.9175 21.0143 89.5682 19.9234 89.5682 19.3492C89.5682 18.8612 91.1472 17.2248 91.6352 17.2248C91.8649 17.2248 92.4677 17.6554 92.9845 18.2009L93.9319 19.177L94.8792 18.2009C96.0275 17.0526 96.6878 16.9664 97.5491 17.8851C98.3529 18.7463 98.3529 19.5502 97.5204 20.3253C96.774 21.043 96.1711 21.1291 95.6543 20.6124C95.0802 20.0382 95.2524 19.5215 95.9988 19.5215C96.8601 19.5215 97.1759 19.1195 96.6591 18.6889C96.372 18.4593 96.085 18.5741 95.4534 19.2344L94.6496 20.0956L95.396 20.6698C96.1424 21.2726 96.1711 21.3875 96.1711 24.1434V26.9855H97.75H99.329V22.5932C99.3003 16.8516 98.7835 15.5598 95.8266 14.0382C94.4773 13.3492 93.4725 13.3492 91.951 14.0382ZM94.9366 15.2727C95.7692 16.0478 95.7692 16.8516 94.9653 17.7129C94.1902 18.5454 93.6735 18.5454 92.8122 17.7416C91.9797 16.9664 91.9797 16.1626 92.7835 15.3014C93.5587 14.4688 94.0754 14.4688 94.9366 15.2727Z" fill="white"/>
<path d="M93.4445 16.3348C93.2436 16.6793 93.789 17.0238 94.1622 16.7941C94.478 16.5932 94.2771 16.0764 93.8751 16.0764C93.7316 16.0764 93.5594 16.1912 93.4445 16.3348Z" fill="white"/>
<path d="M93.3588 21.2726C92.6985 21.7893 92.5263 22.3922 93.0143 22.3922C93.1866 22.3922 93.3014 22.2486 93.3014 22.1051C93.3014 21.6745 94.1626 21.7606 94.6507 22.2486C95.3971 23.0238 95.4258 22.4783 94.6794 21.5884C93.9904 20.7845 93.9617 20.7558 93.3588 21.2726Z" fill="white"/>
<path d="M93.5879 24.9759C93.5879 26.1242 93.7027 26.9854 93.875 26.9854C94.0472 26.9854 94.1621 26.1242 94.1621 24.9759C94.1621 23.8275 94.0472 22.9663 93.875 22.9663C93.7027 22.9663 93.5879 23.8275 93.5879 24.9759Z" fill="white"/>
<path d="M140.382 28.708H0.57416C0.25706 28.708 0 28.9651 0 29.2822V29.8563C0 30.1734 0.25706 30.4305 0.57416 30.4305H140.382C140.699 30.4305 140.956 30.1734 140.956 29.8563V29.2822C140.956 28.9651 140.699 28.708 140.382 28.708Z" fill="white"/>
<path d="M88.3097 8.13678C85.1972 9.93272 82.5603 11.3932 82.4217 11.3932C82.3025 11.3932 82.1639 11.4721 82.1243 11.5511C82.0648 11.7287 79.9037 13.051 79.19 13.347C78.9127 13.4654 78.1195 13.9194 77.4256 14.3535C76.7515 14.7877 76.1171 15.143 76.0379 15.143C75.9784 15.143 75.7008 15.3206 75.4232 15.5377L74.9277 15.9324H77.3464H79.7848L81.708 14.7877C87.8934 11.1366 93.9201 7.80127 94.2373 7.89996C94.2373 7.89996 123.794 21.809 121.435 20.5262L101.156 8.90647C95.7043 5.76848 94.1383 4.88037 94.0191 4.88037C93.9993 4.88037 91.4222 6.34083 88.3097 8.13678Z" fill="white"/>
</svg>
