<svg width="27" height="27" viewBox="0 0 27 27" fill="none" xmlns="http://www.w3.org/2000/svg">
<path d="M2.66145 0.065176C2.48379 0.136236 0.20392 2.39242 0.0795637 2.61745C-0.234289 3.21555 0.44079 3.84917 1.05073 3.5294C1.13956 3.48202 1.4238 3.22739 1.68436 2.96091L2.1581 2.48717L2.18771 12.4179L2.21731 22.3546L2.34759 22.7395C2.66145 23.6633 3.33652 24.3384 4.26032 24.6523L4.64523 24.7825L14.5878 24.8003L24.5305 24.8122L23.956 25.4043C23.4053 25.9728 23.3876 25.9965 23.3876 26.263C23.3876 26.5709 23.506 26.7959 23.7488 26.9203C23.962 27.0269 24.1811 27.0269 24.3824 26.9203C24.5719 26.8137 26.8399 24.5398 26.9347 24.3562C27.0235 24.1785 27.0176 23.9476 26.9169 23.7581C26.8695 23.6693 26.2892 23.0593 25.626 22.402C24.2995 21.0815 24.2048 21.0282 23.7784 21.2295C23.5178 21.3539 23.3876 21.5789 23.3876 21.9164C23.3876 22.1474 23.4231 22.1947 23.9501 22.7336C24.2581 23.0534 24.5127 23.3258 24.5127 23.3495C24.5127 23.4205 5.19003 23.3969 4.85249 23.3258C4.4202 23.2311 4.04121 22.9527 3.82211 22.5619L3.63853 22.2362L3.62077 12.3587C3.61485 6.92848 3.62669 2.48717 3.65038 2.48717C3.67406 2.48717 3.94054 2.72996 4.23663 3.02605C4.72814 3.51163 4.80512 3.57085 5.04199 3.59454C5.38545 3.63599 5.63416 3.50571 5.77036 3.22147C5.9717 2.7951 5.91841 2.70035 4.59786 1.36796C3.25362 0.011879 3.08189 -0.100634 2.66145 0.065176Z" fill="#E3B46D"/>
<path d="M7.59413 0.118513C7.35133 0.260635 7.28027 0.402758 7.28027 0.722532C7.28027 1.00085 7.38686 1.19627 7.59413 1.31471C7.6948 1.37392 9.52462 1.39761 16.1037 1.4213C24.0151 1.45091 24.4948 1.45683 24.6961 1.5575C25.0041 1.71146 25.2824 2.00163 25.4364 2.33917L25.5785 2.63526V10.9139C25.5785 19.8853 25.5607 19.3997 25.8864 19.6248C26.0581 19.7491 26.52 19.7491 26.6918 19.6248C27.0175 19.3997 26.9997 19.8853 26.9997 10.9139C26.9997 1.81806 27.0115 2.24442 26.6385 1.53973C26.2595 0.829123 25.4186 0.201418 24.6369 0.0592957C24.4356 0.0237656 21.303 7.82013e-05 16.0504 7.82013e-05C7.9672 7.82013e-05 7.7777 0.00600052 7.59413 0.118513Z" fill="#E3B46D"/>
<path d="M19.9712 5.11664C19.61 5.23508 19.3435 5.41865 19.0415 5.75027C18.7158 6.11742 18.5322 6.57931 18.5322 7.04713C18.5322 7.34914 18.5559 7.42612 18.698 7.58601C18.8342 7.73998 18.9231 7.78143 19.1718 7.80512C19.456 7.8288 19.4915 7.81696 19.681 7.62746C19.835 7.4735 19.8942 7.35506 19.9298 7.13004C20.0186 6.52602 20.593 6.25362 21.0134 6.60892C21.2207 6.78065 21.3154 7.05898 21.2503 7.29585C21.2266 7.38467 20.7055 7.99461 20.0956 8.646C19.4856 9.2974 18.9349 9.90734 18.8757 9.99616C18.6388 10.3574 18.7987 10.9496 19.1955 11.1924C19.3731 11.2989 19.4975 11.3108 20.7706 11.3108C22.3162 11.3108 22.411 11.293 22.5886 10.92C22.7722 10.5232 22.5709 10.0672 22.1563 9.94879C22.0379 9.91918 21.7004 9.88957 21.4161 9.88957H20.8891L21.6293 9.09606C22.032 8.65785 22.4228 8.18411 22.4939 8.03606C22.9913 7.00568 22.5472 5.73843 21.5049 5.22916C21.1141 5.03966 20.3739 4.98636 19.9712 5.11664Z" fill="#E3B46D"/>
<path d="M8.28162 7.83437C8.1691 7.91135 8.05067 8.05939 8.00922 8.17191C7.8967 8.4976 7.90263 17.5816 8.01514 17.848C8.13357 18.1382 8.37044 18.2981 8.6843 18.2981C8.90932 18.2981 8.98038 18.2685 9.15211 18.0968L9.35345 17.8954V14.2891C9.35345 10.3393 9.35938 10.28 9.69691 9.90698C10.3483 9.20229 11.503 9.38587 11.8643 10.2564C11.9472 10.4459 11.959 10.9611 11.959 14.0996C11.959 18.0671 11.9531 17.9842 12.3084 18.1974C12.6282 18.3869 13.1078 18.2803 13.2737 17.9842C13.3329 17.8836 13.3566 17.0012 13.3802 14.1233L13.4099 10.3926L13.5757 10.1083C13.8066 9.71748 14.1264 9.51614 14.5705 9.48654C15.2101 9.43916 15.7489 9.78854 15.9147 10.357C15.968 10.5169 15.9858 11.6124 15.9858 14.1529C15.9858 17.3269 15.9977 17.7415 16.0806 17.9191C16.3115 18.4106 17.0695 18.4225 17.3182 17.9428C17.4485 17.6882 17.4544 10.6176 17.3182 10.1083C16.9747 8.78185 15.8851 7.98833 14.5172 8.06532C13.9073 8.10085 13.4928 8.26073 12.9894 8.65157L12.6815 8.88844L12.3262 8.61604C11.5267 7.99426 10.4845 7.88174 9.47189 8.31403C9.40083 8.34364 9.35938 8.29626 9.30016 8.1423C9.15211 7.72778 8.66061 7.57973 8.28162 7.83437Z" fill="#E3B46D"/>
</svg>
