<svg width="25" height="28" viewBox="0 0 25 28" fill="none" xmlns="http://www.w3.org/2000/svg">
<path d="M16.2137 0.150629C16.0839 0.237131 12.5049 3.78369 8.26633 8.02767C1.08671 15.2289 0.546073 15.7804 0.362257 16.1372C-0.0107802 16.8616 3.24644e-05 16.6724 3.24644e-05 22.1328C3.24644e-05 26.8201 0.0054388 27.0634 0.102753 27.2418C0.221692 27.4689 0.551479 27.6743 0.800171 27.6743C1.07049 27.6743 1.36243 27.4959 1.503 27.2526L1.62194 27.0364V22.1923C1.62194 17.4834 1.62734 17.3428 1.73006 17.0671C1.82738 16.8076 2.50857 16.1102 9.59088 9.02244C14.0025 4.61086 17.376 1.19946 17.4085 1.11296C17.549 0.729109 17.403 0.318226 17.0516 0.118191C16.7597 -0.0494061 16.511 -0.0385933 16.2137 0.150629Z" fill="#E3B46D"/>
<path d="M18.2793 6.75736C17.7063 6.87089 17.1332 7.26015 16.825 7.75213C16.5115 8.24951 16.4899 8.41711 16.4899 10.5959C16.4899 12.7422 16.479 12.8611 16.2141 13.0449C16.1006 13.1206 15.8573 13.1314 14.2192 13.1314C13.192 13.1368 12.1864 13.1585 11.981 13.1801C10.97 13.3153 10.1915 14.0992 10.0563 15.1318C10.0293 15.3534 10.0022 16.3644 10.0022 17.3754C10.0022 18.9865 9.99143 19.2298 9.91574 19.3433C9.73192 19.6082 9.61298 19.619 7.44504 19.619C5.55282 19.619 5.40144 19.6245 5.1041 19.7272C4.29314 20.0083 3.75251 20.6625 3.61735 21.5329C3.58491 21.7437 3.5687 22.6953 3.57951 23.9009C3.60113 25.8526 3.60113 25.9282 3.72548 26.231C3.95795 26.8203 4.41749 27.2798 5.023 27.5231L5.32576 27.6475H13.219H21.1123L21.5177 27.5231C22.772 27.1285 23.7343 26.2797 24.2209 25.1335C24.5345 24.3874 24.5129 24.9767 24.5345 16.5645C24.5453 10.9365 24.5345 8.74689 24.4912 8.50901C24.3182 7.60616 23.5884 6.89792 22.6693 6.75195C22.2854 6.68708 18.6091 6.69248 18.2793 6.75736ZM22.5774 8.40089C22.945 8.55227 22.9234 8.05488 22.9234 16.2833C22.9234 21.1112 22.9018 23.8144 22.8693 24.0036C22.6801 25.0038 21.8313 25.8363 20.8365 25.9985C20.6419 26.031 17.609 26.0526 13.1217 26.0526C6.65572 26.0526 5.69879 26.0418 5.54742 25.9715C5.21763 25.8147 5.21763 25.8309 5.20141 23.7711C5.18519 21.7275 5.20682 21.5329 5.4501 21.3545C5.59607 21.2572 5.71501 21.2464 7.73698 21.2247C9.41295 21.2085 9.91574 21.1869 10.0833 21.1274C10.9538 20.8138 11.516 20.1326 11.6295 19.2514C11.6512 19.0514 11.6728 18.0512 11.6782 17.024C11.6782 15.0128 11.6782 15.0128 11.9647 14.8507C12.0512 14.7966 12.6568 14.775 14.2733 14.7533L16.4628 14.7263L16.8142 14.5587C17.2143 14.3695 17.6036 14.0127 17.8144 13.6342C18.0793 13.1639 18.1118 12.8503 18.1118 10.7364C18.1118 8.59551 18.1172 8.54686 18.4524 8.40089C18.7119 8.28735 22.3071 8.28735 22.5774 8.40089Z" fill="#E3B46D"/>
</svg>
